<svg xmlns="http://www.w3.org/2000/svg" height="392" width="960.0" font-size="16" font-family="sans-serif" stroke-width="2">
<g transform="translate(10.0 0)">
<g fill="hsl(0, 100%, 40%)">
<text y="22">2022 .day1</text>
<text y="22" x="196.9082718218423" text-anchor="end">4.54 ms</text>
</g>
<g>
<title>4.54 ms ± 424 μs</title>
<rect y="28" rx="5" height="22" width="196.9082718218423" fill="hsl(0, 100%, 80%)" stroke="hsl(0, 100%, 55%)" />
<g stroke="hsl(0, 100%, 40%)"><line x1="178.54968103332982" x2="215.2668626103548" y1="39" y2="39" />
<line x1="178.54968103332982" x2="178.54968103332982" y1="33" y2="45" />
<line x1="215.2668626103548" x2="215.2668626103548" y1="33" y2="45" />
</g>
</g>
<text fill="hsl(51, 100%, 40%)" y="77">2022 .day2 1.32 ms</text>
<g>
<title>1.32 ms ±  67 μs</title>
<rect y="83" rx="5" height="22" width="57.353560536319605" fill="hsl(51, 100%, 80%)" stroke="hsl(51, 100%, 55%)" />
<g stroke="hsl(51, 100%, 40%)"><line x1="54.45155923872572" x2="60.25556183391349" y1="94" y2="94" />
<line x1="54.45155923872572" x2="54.45155923872572" y1="88" y2="100" />
<line x1="60.25556183391349" x2="60.25556183391349" y1="88" y2="100" />
</g>
</g>
<text fill="hsl(102, 100%, 40%)" y="132">2022 .day3 1.90 ms</text>
<g>
<title>1.90 ms ±  57 μs</title>
<rect y="138" rx="5" height="22" width="82.31534935172486" fill="hsl(102, 100%, 80%)" stroke="hsl(102, 100%, 55%)" />
<g stroke="hsl(102, 100%, 40%)"><line x1="79.85199734071419" x2="84.77870136273553" y1="149" y2="149" />
<line x1="79.85199734071419" x2="79.85199734071419" y1="143" y2="155" />
<line x1="84.77870136273553" x2="84.77870136273553" y1="143" y2="155" />
</g>
</g>
<g fill="hsl(154, 100%, 40%)">
<text y="187">2022 .day4</text>
<text y="187" x="619.0332289652805" text-anchor="end">14.3 ms</text>
</g>
<g>
<title>14.3 ms ± 929 μs</title>
<rect y="193" rx="5" height="22" width="619.0332289652805" fill="hsl(154, 100%, 80%)" stroke="hsl(154, 100%, 55%)" />
<g stroke="hsl(154, 100%, 40%)"><line x1="578.7544556324267" x2="659.3120022981343" y1="204" y2="204" />
<line x1="578.7544556324267" x2="578.7544556324267" y1="198" y2="210" />
<line x1="659.3120022981343" x2="659.3120022981343" y1="198" y2="210" />
</g>
</g>
<g fill="hsl(205, 100%, 40%)">
<text y="242">2022 .day5</text>
<text y="242" x="876.5951077260531" text-anchor="end">20.2 ms</text>
</g>
<g>
<title>20.2 ms ± 1.5 ms</title>
<rect y="248" rx="5" height="22" width="876.5951077260531" fill="hsl(205, 100%, 80%)" stroke="hsl(205, 100%, 55%)" />
<g stroke="hsl(205, 100%, 40%)"><line x1="813.1902154521063" x2="940.0" y1="259" y2="259" />
<line x1="813.1902154521063" x2="813.1902154521063" y1="253" y2="265" />
<line x1="940.0" x2="940.0" y1="253" y2="265" />
</g>
</g>
<g fill="hsl(257, 100%, 40%)">
<text y="297">2022 .day6</text>
<text y="297" x="163.16980522522638" text-anchor="end">3.77 ms</text>
</g>
<g>
<title>3.77 ms ± 149 μs</title>
<rect y="303" rx="5" height="22" width="163.16980522522638" fill="hsl(257, 100%, 80%)" stroke="hsl(257, 100%, 55%)" />
<g stroke="hsl(257, 100%, 40%)"><line x1="156.70279901933318" x2="169.63681143111958" y1="314" y2="314" />
<line x1="156.70279901933318" x2="156.70279901933318" y1="308" y2="320" />
<line x1="169.63681143111958" x2="169.63681143111958" y1="308" y2="320" />
</g>
</g>
<text fill="hsl(308, 100%, 40%)" y="352">2022 .day7 48.7 μs</text>
<g>
<title>48.7 μs ± 4.3 μs</title>
<rect y="358" rx="5" height="22" width="2.1100581865468797" fill="hsl(308, 100%, 80%)" stroke="hsl(308, 100%, 55%)" />
<g stroke="hsl(308, 100%, 40%)"><line x1="1.9258559412573002" x2="2.2942604318364594" y1="369" y2="369" />
<line x1="1.9258559412573002" x2="1.9258559412573002" y1="363" y2="375" />
<line x1="2.2942604318364594" x2="2.2942604318364594" y1="363" y2="375" />
</g>
</g>
</g>
</svg>
