<svg xmlns="http://www.w3.org/2000/svg" height="337" width="960.0" font-size="16" font-family="sans-serif" stroke-width="2">
<g transform="translate(10.0 0)">
<g fill="hsl(0, 100%, 40%)">
<text y="22">2022 .day1</text>
<text y="22" x="190.27395245473335" text-anchor="end">3.76 ms</text>
</g>
<g>
<title>3.76 ms ± 320 μs</title>
<rect y="28" rx="5" height="22" width="190.27395245473335" fill="hsl(0, 100%, 80%)" stroke="hsl(0, 100%, 55%)" />
<g stroke="hsl(0, 100%, 40%)"><line x1="174.0678246880936" x2="206.4800802213731" y1="39" y2="39" />
<line x1="174.0678246880936" x2="174.0678246880936" y1="33" y2="45" />
<line x1="206.4800802213731" x2="206.4800802213731" y1="33" y2="45" />
</g>
</g>
<text fill="hsl(60, 100%, 40%)" y="77">2022 .day2 1.02 ms</text>
<g>
<title>1.02 ms ±  57 μs</title>
<rect y="83" rx="5" height="22" width="51.46380349830146" fill="hsl(60, 100%, 80%)" stroke="hsl(60, 100%, 55%)" />
<g stroke="hsl(60, 100%, 40%)"><line x1="48.60038479371797" x2="54.32722220288495" y1="94" y2="94" />
<line x1="48.60038479371797" x2="48.60038479371797" y1="88" y2="100" />
<line x1="54.32722220288495" x2="54.32722220288495" y1="88" y2="100" />
</g>
</g>
<text fill="hsl(120, 100%, 40%)" y="132">2022 .day3 1.41 ms</text>
<g>
<title>1.41 ms ±  96 μs</title>
<rect y="138" rx="5" height="22" width="71.12398854060092" fill="hsl(120, 100%, 80%)" stroke="hsl(120, 100%, 55%)" />
<g stroke="hsl(120, 100%, 40%)"><line x1="66.26025235706334" x2="75.9877247241385" y1="149" y2="149" />
<line x1="66.26025235706334" x2="66.26025235706334" y1="143" y2="155" />
<line x1="75.9877247241385" x2="75.9877247241385" y1="143" y2="155" />
</g>
</g>
<g fill="hsl(180, 100%, 40%)">
<text y="187">2022 .day4</text>
<text y="187" x="620.8353702182703" text-anchor="end">12.3 ms</text>
</g>
<g>
<title>12.3 ms ± 827 μs</title>
<rect y="193" rx="5" height="22" width="620.8353702182703" fill="hsl(180, 100%, 80%)" stroke="hsl(180, 100%, 55%)" />
<g stroke="hsl(180, 100%, 40%)"><line x1="579.0050039922819" x2="662.6657364442588" y1="204" y2="204" />
<line x1="579.0050039922819" x2="579.0050039922819" y1="198" y2="210" />
<line x1="662.6657364442588" x2="662.6657364442588" y1="198" y2="210" />
</g>
</g>
<g fill="hsl(240, 100%, 40%)">
<text y="242">2022 .day5</text>
<text y="242" x="896.839014826479" text-anchor="end">17.7 ms</text>
</g>
<g>
<title>17.7 ms ± 853 μs</title>
<rect y="248" rx="5" height="22" width="896.839014826479" fill="hsl(240, 100%, 80%)" stroke="hsl(240, 100%, 55%)" />
<g stroke="hsl(240, 100%, 40%)"><line x1="853.678029652958" x2="940.0" y1="259" y2="259" />
<line x1="853.678029652958" x2="853.678029652958" y1="253" y2="265" />
<line x1="940.0" x2="940.0" y1="253" y2="265" />
</g>
</g>
<text fill="hsl(300, 100%, 40%)" y="297">2022 .day6 2.80 ms</text>
<g>
<title>2.80 ms ± 243 μs</title>
<rect y="303" rx="5" height="22" width="141.83206554745206" fill="hsl(300, 100%, 80%)" stroke="hsl(300, 100%, 55%)" />
<g stroke="hsl(300, 100%, 40%)"><line x1="129.54810877014552" x2="154.1160223247586" y1="314" y2="314" />
<line x1="129.54810877014552" x2="129.54810877014552" y1="308" y2="320" />
<line x1="154.1160223247586" x2="154.1160223247586" y1="308" y2="320" />
</g>
</g>
</g>
</svg>
